<svg xmlns="http://www.w3.org/2000/svg" viewBox="0 0 280 96"><defs><style>.cls-1{fill:#8ababa;}</style></defs><title>1</title><g id="Layer_8" data-name="Layer 8"><rect class="cls-1" x="64.61" y="33.74" width="5.74" height="19.7" rx="2" transform="translate(13.43 103.02) rotate(-80.58)"/><rect class="cls-1" x="57.37" y="23.75" width="14.71" height="20.6" rx="2"/><circle class="cls-1" cx="64.23" cy="16.88" r="5.88"/><rect class="cls-1" x="66.19" y="42.39" width="4.9" height="18.63" rx="2"/><path class="cls-1" d="M69.12,15.44h0a1.65,1.65,0,0,1,2.09-1l8.18,2.76a1.64,1.64,0,0,1,1,2.09h0a1.64,1.64,0,0,1-2.09,1l-8.17-2.76A1.64,1.64,0,0,1,69.12,15.44Z"/><path class="cls-1" d="M68.54,27.28h0a1.9,1.9,0,0,1,.28-2.68l8.54-6.93A1.91,1.91,0,0,1,80,18h0a1.9,1.9,0,0,1-.28,2.68l-8.54,6.93A1.91,1.91,0,0,1,68.54,27.28Z"/><path class="cls-1" d="M60.7,15.44h0a1.65,1.65,0,0,0-2.09-1l-8.18,2.76a1.64,1.64,0,0,0-1,2.09h0a1.64,1.64,0,0,0,2.09,1l8.18-2.76A1.64,1.64,0,0,0,60.7,15.44Z"/><path class="cls-1" d="M60,26.26h0a1.9,1.9,0,0,0-.28-2.68l-7.37-6a1.91,1.91,0,0,0-2.68.28h0A1.9,1.9,0,0,0,50,20.56l7.37,6A1.9,1.9,0,0,0,60,26.26Z"/></g></svg>