<svg xmlns="http://www.w3.org/2000/svg" viewBox="0 0 233 84"><defs><style>.cls-1{fill:#8ababa;}</style></defs><title>2</title><g id="Layer_8" data-name="Layer 8"><circle class="cls-1" cx="44.21" cy="12.88" r="5.88"/><rect class="cls-1" x="37.35" y="19.75" width="14.71" height="20.6" rx="2"/><path class="cls-1" d="M45.19,39.37h5.89V56a2,2,0,0,1-2,2H47.19a2,2,0,0,1-2-2Z"/><path class="cls-1" d="M38.33,39.37h5.88V56a2,2,0,0,1-2,2H40.33a2,2,0,0,1-2-2Z"/><path class="cls-1" d="M31,31.92h0a1.91,1.91,0,0,1-.28-2.68l6.53-8A1.9,1.9,0,0,1,39.91,21h0a1.91,1.91,0,0,1,.27,2.68l-6.52,8A1.91,1.91,0,0,1,31,31.92Z"/><path class="cls-1" d="M30.55,29.19h0a1.9,1.9,0,0,1,2.64-.55l8.5,5.59a1.91,1.91,0,0,1,.55,2.64h0a1.91,1.91,0,0,1-2.64.55l-8.51-5.59A1.9,1.9,0,0,1,30.55,29.19Z"/><rect class="cls-1" x="52.15" y="16.87" width="4.11" height="11.55" rx="2" transform="translate(20.96 71.09) rotate(-78.21)"/><path class="cls-1" d="M57.85,24.84h0a1.92,1.92,0,0,0,2.24-1.5l1.37-6.86A1.9,1.9,0,0,0,60,14.24h0a1.9,1.9,0,0,0-2.24,1.49l-1.37,6.86A1.92,1.92,0,0,0,57.85,24.84Z"/><path class="cls-1" d="M73.1,27.19h0A1.9,1.9,0,0,0,71.52,25L64,23.8a1.91,1.91,0,0,0-2.19,1.57h0a1.92,1.92,0,0,0,1.58,2.19l7.54,1.21A1.91,1.91,0,0,0,73.1,27.19Z"/><rect class="cls-1" x="76.77" y="19.75" width="14.71" height="20.6" rx="2"/><rect class="cls-1" x="79.71" y="40.35" width="5.88" height="17.65" rx="2"/><rect class="cls-1" x="71.2" y="36.72" width="19.7" height="5.74" rx="2" transform="translate(-5.39 13.8) rotate(-9.42)"/><path class="cls-1" d="M97.66,34.33h0a1.89,1.89,0,0,0,.63-2.61L91.67,20.87a1.91,1.91,0,0,0-2.62-.63h0a1.9,1.9,0,0,0-.63,2.62L95,33.7A1.9,1.9,0,0,0,97.66,34.33Z"/><path class="cls-1" d="M97.75,32.83h0a1.91,1.91,0,0,0-1.58-2.19l-6.91-1.11a1.91,1.91,0,0,0-2.18,1.58h0a1.9,1.9,0,0,0,1.58,2.18l6.91,1.11A1.9,1.9,0,0,0,97.75,32.83Z"/><path class="cls-1" d="M79.4,20.74h0a1.91,1.91,0,0,0-2.67-.37l-6,4.54a1.9,1.9,0,0,0-.37,2.67h0a1.9,1.9,0,0,0,2.67.37l6-4.54A1.9,1.9,0,0,0,79.4,20.74Z"/><circle class="cls-1" cx="84.61" cy="12.88" r="5.88"/></g></svg>