<svg xmlns="http://www.w3.org/2000/svg" viewBox="0 0 31.22 50.02"><title>Asset 12</title><g id="Layer_2" data-name="Layer 2"><g id="Layer_1-2" data-name="Layer 1"><path d="M26.41,31.05l-3.62-.6V15.86l7.68-6.23a1.86,1.86,0,0,0,.7-1.51,1.64,1.64,0,0,0-1.07-2L21.93,3.4a1.63,1.63,0,0,0-1.54.26A5.87,5.87,0,0,0,9.66,3.32a1.87,1.87,0,0,0-.34.08L1.15,6.16A1.65,1.65,0,0,0,0,7.73,1.89,1.89,0,0,0,.7,9.56l7.37,6h0v15.8a2,2,0,0,0,.23.91A2,2,0,0,0,10,34.13l6.93,1.15V48a2,2,0,0,0,2,2h.9a2,2,0,0,0,2-2V36.1l3.66.61a2,2,0,0,0,2.3-1.65l.29-1.71A2,2,0,0,0,26.41,31.05ZM5.18,8.29,9.16,7A5.88,5.88,0,0,0,20.8,6.5l.07,0,5.21,1.76-5.5,4.46H10.64l-.17-.17Z" style="fill:#8ababa"/></g></g></svg>