<svg xmlns="http://www.w3.org/2000/svg" viewBox="0 0 288 113"><title>pizza</title><g id="Layer_8" data-name="Layer 8"><rect x="113.17" y="44.75" width="14.71" height="20.6" rx="2" style="fill:#8ababa"/><circle cx="121.01" cy="37.88" r="5.88" style="fill:#8ababa"/><path d="M121,64.37h5.89V81a2,2,0,0,1-2,2H123a2,2,0,0,1-2-2Z" style="fill:#8ababa"/><path d="M114.15,64.37H120V81a2,2,0,0,1-2,2h-1.88a2,2,0,0,1-2-2Z" style="fill:#8ababa"/><path d="M134.3,56.92h0a1.9,1.9,0,0,0,.27-2.68l-6.52-8a1.91,1.91,0,0,0-2.68-.28h0a1.9,1.9,0,0,0-.27,2.68l6.52,8A1.9,1.9,0,0,0,134.3,56.92Z" style="fill:#8ababa"/><path d="M134.73,54.19h0a1.91,1.91,0,0,0-2.64-.55l-8.5,5.59a1.91,1.91,0,0,0-.55,2.64h0a1.91,1.91,0,0,0,2.64.55l8.5-5.59A1.91,1.91,0,0,0,134.73,54.19Z" style="fill:#8ababa"/><rect x="110.1" y="40.04" width="3.53" height="15.47" rx="1.77" transform="translate(-8.28 28.77) rotate(-14.13)" style="fill:#8ababa"/><circle cx="87.21" cy="37.88" r="5.88" style="fill:#8ababa"/><rect x="80.35" y="44.75" width="14.71" height="20.6" rx="2" style="fill:#8ababa"/><path d="M88.19,64.37h5.89V81a2,2,0,0,1-2,2H90.19a2,2,0,0,1-2-2Z" style="fill:#8ababa"/><path d="M81.33,64.37h5.88V81a2,2,0,0,1-2,2H83.33a2,2,0,0,1-2-2Z" style="fill:#8ababa"/><path d="M74,56.92h0a1.91,1.91,0,0,1-.28-2.68l6.53-8A1.9,1.9,0,0,1,82.91,46h0a1.91,1.91,0,0,1,.27,2.68l-6.52,8A1.91,1.91,0,0,1,74,56.92Z" style="fill:#8ababa"/><path d="M73.55,54.19h0a1.9,1.9,0,0,1,2.64-.55l8.5,5.59a1.91,1.91,0,0,1,.55,2.64h0a1.91,1.91,0,0,1-2.64.55l-8.51-5.59A1.9,1.9,0,0,1,73.55,54.19Z" style="fill:#8ababa"/><rect x="95.15" y="41.87" width="4.11" height="11.55" rx="2" transform="translate(30.71 133.07) rotate(-78.21)" style="fill:#8ababa"/><path d="M100.85,49.84h0a1.92,1.92,0,0,0,2.24-1.5l1.37-6.86a1.9,1.9,0,0,0-1.5-2.24h0a1.9,1.9,0,0,0-2.24,1.49l-1.37,6.86A1.92,1.92,0,0,0,100.85,49.84Z" style="fill:#8ababa"/><rect x="144.47" y="44.75" width="14.71" height="20.6" rx="2" style="fill:#8ababa"/><circle cx="151.33" cy="37.88" r="5.88" style="fill:#8ababa"/><rect x="150.35" y="65.35" width="5.88" height="17.65" rx="2" style="fill:#8ababa"/><rect x="151.87" y="54.74" width="5.74" height="19.7" rx="2" transform="translate(65.69 206.67) rotate(-80.58)" style="fill:#8ababa"/><path d="M138.17,59.28h0a1.91,1.91,0,0,1-.64-2.62l6.41-10.49a1.91,1.91,0,0,1,2.62-.63h0a1.91,1.91,0,0,1,.63,2.62l-6.4,10.49A1.9,1.9,0,0,1,138.17,59.28Z" style="fill:#8ababa"/><path d="M163.32,52.09h0a1.9,1.9,0,0,1,1.58-2.18l6.91-1.11A1.9,1.9,0,0,1,174,50.38h0a1.91,1.91,0,0,1-1.58,2.18l-6.91,1.11A1.91,1.91,0,0,1,163.32,52.09Z" style="fill:#8ababa"/><path d="M138,57.83h0a1.91,1.91,0,0,1,1.58-2.19l6.91-1.11a1.91,1.91,0,0,1,2.18,1.58h0a1.9,1.9,0,0,1-1.58,2.18l-6.91,1.11A1.91,1.91,0,0,1,138,57.83Z" style="fill:#8ababa"/><path d="M156,45.48h0a1.91,1.91,0,0,1,2.67-.37l7,5.3a1.9,1.9,0,0,1,.37,2.67h0a1.9,1.9,0,0,1-2.67.37l-7-5.3A1.91,1.91,0,0,1,156,45.48Z" style="fill:#8ababa"/><path d="M209.72,52.19h0A1.9,1.9,0,0,0,208.14,50L200.6,48.8a1.9,1.9,0,0,0-2.18,1.57h0A1.91,1.91,0,0,0,200,52.56l7.54,1.21A1.91,1.91,0,0,0,209.72,52.19Z" style="fill:#8ababa"/><rect x="213.39" y="44.75" width="14.71" height="20.6" rx="2" style="fill:#8ababa"/><rect x="216.33" y="65.35" width="5.88" height="17.65" rx="2" style="fill:#8ababa"/><rect x="207.82" y="61.72" width="19.7" height="5.74" rx="2" transform="translate(-7.64 36.51) rotate(-9.42)" style="fill:#8ababa"/><path d="M234.27,59.33h0a1.89,1.89,0,0,0,.64-2.61l-6.62-10.85a1.91,1.91,0,0,0-2.62-.63h0a1.9,1.9,0,0,0-.63,2.62l6.62,10.84A1.89,1.89,0,0,0,234.27,59.33Z" style="fill:#8ababa"/><path d="M234.37,57.83h0a1.92,1.92,0,0,0-1.58-2.19l-6.91-1.11a1.91,1.91,0,0,0-2.18,1.58h0a1.9,1.9,0,0,0,1.58,2.18l6.91,1.11A1.91,1.91,0,0,0,234.37,57.83Z" style="fill:#8ababa"/><path d="M216,45.74h0a1.91,1.91,0,0,0-2.67-.37l-6,4.54a1.91,1.91,0,0,0-.36,2.67h0a1.9,1.9,0,0,0,2.67.37l6-4.54A1.91,1.91,0,0,0,216,45.74Z" style="fill:#8ababa"/><circle cx="221.23" cy="37.88" r="5.88" style="fill:#8ababa"/><rect x="184.67" y="54.74" width="5.74" height="19.7" rx="2" transform="translate(93.12 239.03) rotate(-80.58)" style="fill:#8ababa"/><rect x="177.43" y="44.75" width="14.71" height="20.6" rx="2" style="fill:#8ababa"/><circle cx="184.29" cy="37.88" r="5.88" style="fill:#8ababa"/><rect x="186.25" y="63.39" width="4.9" height="18.63" rx="2" style="fill:#8ababa"/><path d="M189.18,36.44h0a1.65,1.65,0,0,1,2.09-1l8.18,2.76a1.66,1.66,0,0,1,1,2.09h0a1.65,1.65,0,0,1-2.1,1l-8.17-2.76A1.64,1.64,0,0,1,189.18,36.44Z" style="fill:#8ababa"/><path d="M188.6,48.28h0a1.9,1.9,0,0,1,.28-2.68l8.54-6.93a1.9,1.9,0,0,1,2.68.28h0a1.9,1.9,0,0,1-.28,2.68l-8.54,6.93A1.91,1.91,0,0,1,188.6,48.28Z" style="fill:#8ababa"/><path d="M180.76,36.44h0a1.65,1.65,0,0,0-2.09-1l-8.18,2.76a1.64,1.64,0,0,0-1,2.09h0a1.64,1.64,0,0,0,2.09,1l8.18-2.76A1.64,1.64,0,0,0,180.76,36.44Z" style="fill:#8ababa"/><path d="M180.09,47.26h0a1.9,1.9,0,0,0-.28-2.68l-7.37-6a1.91,1.91,0,0,0-2.68.28h0a1.9,1.9,0,0,0,.28,2.68l7.37,6A1.9,1.9,0,0,0,180.09,47.26Z" style="fill:#8ababa"/></g></svg>