<svg xmlns="http://www.w3.org/2000/svg" viewBox="0 0 233 84"><g data-name="Layer 8" fill="#8ababa"><circle cx="44.21" cy="12.88" r="5.88"/><rect x="37.35" y="19.75" width="14.71" height="20.6" rx="2"/><path d="M45.19 39.37h5.89V56a2 2 0 0 1-2 2h-1.89a2 2 0 0 1-2-2zM38.33 39.37h5.88V56a2 2 0 0 1-2 2h-1.88a2 2 0 0 1-2-2zM31 31.92a1.91 1.91 0 0 1-.28-2.68l6.53-8a1.9 1.9 0 0 1 2.66-.24 1.91 1.91 0 0 1 .27 2.68l-6.52 8a1.91 1.91 0 0 1-2.66.24z"/><path d="M30.55 29.19a1.9 1.9 0 0 1 2.64-.55l8.5 5.59a1.91 1.91 0 0 1 .55 2.64 1.91 1.91 0 0 1-2.64.55l-8.51-5.59a1.9 1.9 0 0 1-.54-2.64z"/><rect x="52.15" y="16.87" width="4.11" height="11.55" rx="2" transform="rotate(-78.21 54.21 22.652)"/><path d="M57.85 24.84a1.92 1.92 0 0 0 2.24-1.5l1.37-6.86A1.9 1.9 0 0 0 60 14.24a1.9 1.9 0 0 0-2.24 1.49l-1.37 6.86a1.92 1.92 0 0 0 1.46 2.25zM73.1 27.19A1.9 1.9 0 0 0 71.52 25L64 23.8a1.91 1.91 0 0 0-2.19 1.57 1.92 1.92 0 0 0 1.58 2.19l7.54 1.21a1.91 1.91 0 0 0 2.17-1.58z"/><rect x="76.77" y="19.75" width="14.71" height="20.6" rx="2"/><rect x="79.71" y="40.35" width="5.88" height="17.65" rx="2"/><rect x="71.2" y="36.72" width="19.7" height="5.74" rx="2" transform="rotate(-9.42 81.052 39.61)"/><path d="M97.66 34.33a1.89 1.89 0 0 0 .63-2.61l-6.62-10.85a1.91 1.91 0 0 0-2.62-.63 1.9 1.9 0 0 0-.63 2.62L95 33.7a1.9 1.9 0 0 0 2.66.63z"/><path d="M97.75 32.83a1.91 1.91 0 0 0-1.58-2.19l-6.91-1.11a1.91 1.91 0 0 0-2.18 1.58 1.9 1.9 0 0 0 1.58 2.18l6.91 1.11a1.9 1.9 0 0 0 2.18-1.57zM79.4 20.74a1.91 1.91 0 0 0-2.67-.37l-6 4.54a1.9 1.9 0 0 0-.37 2.67 1.9 1.9 0 0 0 2.67.37l6-4.54a1.9 1.9 0 0 0 .37-2.67z"/><circle cx="84.61" cy="12.88" r="5.88"/></g></svg>