<svg xmlns="http://www.w3.org/2000/svg" viewBox="0 0 216 82"><title>pizza</title><g id="Layer_8" data-name="Layer 8"><rect x="65.17" y="24.75" width="14.71" height="20.6" rx="2" style="fill:#8ababa"/><circle cx="73.01" cy="17.88" r="5.88" style="fill:#8ababa"/><path d="M73,44.37H78.9V61a2,2,0,0,1-2,2H75a2,2,0,0,1-2-2Z" style="fill:#8ababa"/><path d="M66.15,44.37H72V61a2,2,0,0,1-2,2H68.15a2,2,0,0,1-2-2Z" style="fill:#8ababa"/><path d="M86.3,36.92h0a1.9,1.9,0,0,0,.27-2.68l-6.52-8A1.91,1.91,0,0,0,77.37,26h0a1.9,1.9,0,0,0-.27,2.68l6.52,8A1.9,1.9,0,0,0,86.3,36.92Z" style="fill:#8ababa"/><path d="M86.73,34.19h0a1.91,1.91,0,0,0-2.64-.55l-8.5,5.59A1.91,1.91,0,0,0,75,41.87h0a1.91,1.91,0,0,0,2.64.55l8.5-5.59A1.91,1.91,0,0,0,86.73,34.19Z" style="fill:#8ababa"/><rect x="62.1" y="20.04" width="3.53" height="15.47" rx="1.77" transform="translate(-4.85 16.44) rotate(-14.13)" style="fill:#8ababa"/><circle cx="39.21" cy="17.88" r="5.88" style="fill:#8ababa"/><rect x="32.35" y="24.75" width="14.71" height="20.6" rx="2" style="fill:#8ababa"/><path d="M40.19,44.37h5.89V61a2,2,0,0,1-2,2H42.19a2,2,0,0,1-2-2Z" style="fill:#8ababa"/><path d="M33.33,44.37h5.88V61a2,2,0,0,1-2,2H35.33a2,2,0,0,1-2-2Z" style="fill:#8ababa"/><path d="M26,36.92h0a1.91,1.91,0,0,1-.28-2.68l6.53-8A1.9,1.9,0,0,1,34.91,26h0a1.91,1.91,0,0,1,.27,2.68l-6.52,8A1.91,1.91,0,0,1,26,36.92Z" style="fill:#8ababa"/><path d="M25.55,34.19h0a1.9,1.9,0,0,1,2.64-.55l8.5,5.59a1.91,1.91,0,0,1,.55,2.64h0a1.91,1.91,0,0,1-2.64.55l-8.51-5.59A1.9,1.9,0,0,1,25.55,34.19Z" style="fill:#8ababa"/><rect x="47.15" y="21.87" width="4.11" height="11.55" rx="2" transform="translate(12.09 70.17) rotate(-78.21)" style="fill:#8ababa"/><path d="M52.85,29.84h0a1.92,1.92,0,0,0,2.24-1.5l1.37-6.86A1.9,1.9,0,0,0,55,19.24h0a1.9,1.9,0,0,0-2.24,1.49l-1.37,6.86A1.92,1.92,0,0,0,52.85,29.84Z" style="fill:#8ababa"/><path d="M99.1,32.19h0A1.9,1.9,0,0,0,97.52,30L90,28.8a1.91,1.91,0,0,0-2.19,1.57h0a1.92,1.92,0,0,0,1.58,2.19l7.54,1.21A1.91,1.91,0,0,0,99.1,32.19Z" style="fill:#8ababa"/><rect x="102.77" y="24.75" width="14.71" height="20.6" rx="2" style="fill:#8ababa"/><rect x="105.71" y="45.35" width="5.88" height="17.65" rx="2" style="fill:#8ababa"/><rect x="97.2" y="41.72" width="19.7" height="5.74" rx="2" transform="translate(-5.86 18.13) rotate(-9.42)" style="fill:#8ababa"/><path d="M123.66,39.33h0a1.9,1.9,0,0,0,.63-2.61l-6.62-10.85a1.91,1.91,0,0,0-2.62-.63h0a1.9,1.9,0,0,0-.63,2.62L121,38.7A1.9,1.9,0,0,0,123.66,39.33Z" style="fill:#8ababa"/><path d="M123.75,37.83h0a1.91,1.91,0,0,0-1.58-2.19l-6.91-1.11a1.91,1.91,0,0,0-2.18,1.58h0a1.9,1.9,0,0,0,1.58,2.18l6.91,1.11A1.9,1.9,0,0,0,123.75,37.83Z" style="fill:#8ababa"/><path d="M105.4,25.74h0a1.91,1.91,0,0,0-2.67-.37l-6,4.54a1.9,1.9,0,0,0-.37,2.67h0a1.9,1.9,0,0,0,2.67.37l6-4.54A1.9,1.9,0,0,0,105.4,25.74Z" style="fill:#8ababa"/><circle cx="110.61" cy="17.88" r="5.88" style="fill:#8ababa"/></g></svg>