<svg xmlns="http://www.w3.org/2000/svg" viewBox="0 0 31.26 51"><title>Asset 9</title><g id="Layer_2" data-name="Layer 2"><g id="Layer_1-2" data-name="Layer 1"><circle cx="13.97" cy="5.88" r="5.88" style="fill:#8ababa"/><path d="M29.73,7.24a1.91,1.91,0,0,0-2.25,1.49l-1.06,5.33-5.73-1.19a1.32,1.32,0,0,0-.34,0,1.89,1.89,0,0,0-.53-.08H9.11a2,2,0,0,0-1.83,1.19,2.65,2.65,0,0,0-.29.29L1,21.55a1.89,1.89,0,0,0-1,2.16,1.91,1.91,0,0,0,.68,1.21,2,2,0,0,0,.83.38l5.54,3.64v2.41a2,2,0,0,0,1,1.71V49a2,2,0,0,0,2,2H12a2,2,0,0,0,2-2V33.35h1V49a2,2,0,0,0,2,2h1.89a2,2,0,0,0,2-2V33.06a2,2,0,0,0,1-1.71v-14l5.42,1.13A2,2,0,0,0,29.56,17a1.82,1.82,0,0,0,.29-.7l1.37-6.86A1.9,1.9,0,0,0,29.73,7.24ZM4.85,22.89l2.26-2.78v4.27Z" style="fill:#8ababa"/></g></g></svg>