<svg xmlns="http://www.w3.org/2000/svg" viewBox="0 0 26.4 51"><title>Asset 10</title><g id="Layer_2" data-name="Layer 2"><g id="Layer_1-2" data-name="Layer 1"><circle cx="12.37" cy="5.88" r="5.88" transform="translate(2.2 15.06) rotate(-67.5)" style="fill:#8ababa"/><path d="M26.09,22.19a1.93,1.93,0,0,0-.71-.63l-6-7.33a2,2,0,0,0-.37-.34,2,2,0,0,0-1.8-1.14H6.53a2,2,0,0,0-1.9,1.38L3.48,9.56a1.77,1.77,0,0,0-3.43.86L3,22a1.78,1.78,0,0,0,1.56,1.32v8a2,2,0,0,0,1,1.71V49a2,2,0,0,0,2,2H9.39a2,2,0,0,0,2-2V33.35h1V49a2,2,0,0,0,2,2h1.89a2,2,0,0,0,2-2V33.06a2,2,0,0,0,1-1.71V29l5.58-3.67a2.11,2.11,0,0,0,1.27-3.11Zm-6.85-2.14,2.31,2.84-2.31,1.52Z" style="fill:#8ababa"/></g></g></svg>