<svg xmlns="http://www.w3.org/2000/svg" viewBox="0 0 36.76 51"><title>Asset 11</title><g id="Layer_2" data-name="Layer 2"><g id="Layer_1-2" data-name="Layer 1"><circle cx="14.08" cy="5.88" r="5.88" transform="translate(3.25 16.64) rotate(-67.5)" style="fill:#8ababa"/><path d="M34.55,16.8l-6.79,1.09-6.3-4.78A1.88,1.88,0,0,0,20,12.76H9.21a2,2,0,0,0-1.41.59,1.9,1.9,0,0,0-1.12.83L.28,24.66a1.9,1.9,0,0,0,.63,2.62,1.92,1.92,0,0,0,1.68.15l.38,0,4.24-.68v4.63a2,2,0,0,0,.44,1.22,2,2,0,0,0,1.62,1.56l3.92.65a2.12,2.12,0,0,0-.09.57V49a2,2,0,0,0,2,2H17a2,2,0,0,0,2-2V35.75l5.78,1a2,2,0,0,0,2.3-1.65l.29-1.71a2,2,0,0,0-1.65-2.3l-3.77-.63V18.25l4.22,3.2a1.88,1.88,0,0,0,1.89.23h.21l6.91-1.11a1.9,1.9,0,1,0-.61-3.76ZM5.69,23.11l1.52-2.49v2.24Z" style="fill:#8ababa"/></g></g></svg>