<svg xmlns="http://www.w3.org/2000/svg" viewBox="0 0 36.79 51"><title>Asset 13</title><g id="Layer_2" data-name="Layer 2"><g id="Layer_1-2" data-name="Layer 1"><path d="M36.51,24.72,29.89,13.87A1.87,1.87,0,0,0,28.67,13a2,2,0,0,0-1-.26H17a2,2,0,0,0-.93.24,1.88,1.88,0,0,0-1.1.38L9,17.89,2.21,16.8a1.9,1.9,0,1,0-.61,3.76l7.54,1.21a1.9,1.9,0,0,0,1.69-.58,1.73,1.73,0,0,0,.44-.24L15,18.13V30.39l-3.93.66a2,2,0,0,0-1.65,2.3l.29,1.71A2,2,0,0,0,12,36.71l5.93-1V49a2,2,0,0,0,2,2h1.89a2,2,0,0,0,2-2V35.35a1.92,1.92,0,0,0-.1-.59l3.77-.63A2,2,0,0,0,29,32.83a2,2,0,0,0,.66-1.48v-4.6l4.09.65a1.23,1.23,0,0,0,.27,0,1.9,1.9,0,0,0,2.45-2.7ZM29.7,20.87l1.37,2.24-1.37-.22Z" style="fill:#8ababa"/><circle cx="22.84" cy="5.88" r="5.88" style="fill:#8ababa"/></g></g></svg>