<svg xmlns="http://www.w3.org/2000/svg" viewBox="0 0 269 70"><title>pizza</title><g id="Layer_8" data-name="Layer 8"><rect x="100.17" y="20.75" width="14.71" height="20.6" rx="2" style="fill:#8ababa"/><circle cx="108.01" cy="13.88" r="5.88" style="fill:#8ababa"/><path d="M108,40.37h5.89V57a2,2,0,0,1-2,2H110a2,2,0,0,1-2-2Z" style="fill:#8ababa"/><path d="M101.15,40.37H107V57a2,2,0,0,1-2,2h-1.88a2,2,0,0,1-2-2Z" style="fill:#8ababa"/><path d="M121.3,32.92h0a1.9,1.9,0,0,0,.27-2.68l-6.52-8a1.91,1.91,0,0,0-2.68-.28h0a1.9,1.9,0,0,0-.27,2.68l6.52,8A1.9,1.9,0,0,0,121.3,32.92Z" style="fill:#8ababa"/><path d="M121.73,30.19h0a1.91,1.91,0,0,0-2.64-.55l-8.5,5.59a1.91,1.91,0,0,0-.55,2.64h0a1.91,1.91,0,0,0,2.64.55l8.5-5.59A1.91,1.91,0,0,0,121.73,30.19Z" style="fill:#8ababa"/><rect x="97.1" y="16.04" width="3.53" height="15.47" rx="1.77" transform="translate(-2.81 24.86) rotate(-14.13)" style="fill:#8ababa"/><circle cx="74.21" cy="13.88" r="5.88" style="fill:#8ababa"/><rect x="67.35" y="20.75" width="14.71" height="20.6" rx="2" style="fill:#8ababa"/><path d="M75.19,40.37h5.89V57a2,2,0,0,1-2,2H77.19a2,2,0,0,1-2-2Z" style="fill:#8ababa"/><path d="M68.33,40.37h5.88V57a2,2,0,0,1-2,2H70.33a2,2,0,0,1-2-2Z" style="fill:#8ababa"/><path d="M61,32.92h0a1.91,1.91,0,0,1-.28-2.68l6.53-8A1.9,1.9,0,0,1,69.91,22h0a1.91,1.91,0,0,1,.27,2.68l-6.52,8A1.91,1.91,0,0,1,61,32.92Z" style="fill:#8ababa"/><path d="M60.55,30.19h0a1.9,1.9,0,0,1,2.64-.55l8.5,5.59a1.91,1.91,0,0,1,.55,2.64h0a1.91,1.91,0,0,1-2.64.55l-8.51-5.59A1.9,1.9,0,0,1,60.55,30.19Z" style="fill:#8ababa"/><rect x="82.15" y="17.87" width="4.11" height="11.55" rx="2" transform="translate(43.86 101.25) rotate(-78.21)" style="fill:#8ababa"/><path d="M87.85,25.84h0a1.92,1.92,0,0,0,2.24-1.5l1.37-6.86A1.9,1.9,0,0,0,90,15.24h0a1.9,1.9,0,0,0-2.24,1.49l-1.37,6.86A1.92,1.92,0,0,0,87.85,25.84Z" style="fill:#8ababa"/><rect x="131.47" y="20.75" width="14.71" height="20.6" rx="2" style="fill:#8ababa"/><circle cx="138.33" cy="13.88" r="5.88" style="fill:#8ababa"/><rect x="137.35" y="41.35" width="5.88" height="17.65" rx="2" style="fill:#8ababa"/><rect x="138.87" y="30.74" width="5.74" height="19.7" rx="2" transform="translate(78.49 173.77) rotate(-80.58)" style="fill:#8ababa"/><path d="M125.17,35.28h0a1.91,1.91,0,0,1-.64-2.62l6.41-10.49a1.91,1.91,0,0,1,2.62-.63h0a1.91,1.91,0,0,1,.63,2.62l-6.4,10.49A1.9,1.9,0,0,1,125.17,35.28Z" style="fill:#8ababa"/><path d="M150.32,28.09h0a1.9,1.9,0,0,1,1.58-2.18l6.91-1.11A1.9,1.9,0,0,1,161,26.38h0a1.91,1.91,0,0,1-1.58,2.18l-6.91,1.11A1.91,1.91,0,0,1,150.32,28.09Z" style="fill:#8ababa"/><path d="M125,33.83h0a1.91,1.91,0,0,1,1.58-2.19l6.91-1.11a1.91,1.91,0,0,1,2.18,1.58h0a1.9,1.9,0,0,1-1.58,2.18l-6.91,1.11A1.91,1.91,0,0,1,125,33.83Z" style="fill:#8ababa"/><path d="M143,21.48h0a1.91,1.91,0,0,1,2.67-.37l7,5.3a1.9,1.9,0,0,1,.37,2.67h0a1.9,1.9,0,0,1-2.67.37l-7-5.3A1.91,1.91,0,0,1,143,21.48Z" style="fill:#8ababa"/><rect x="171.67" y="30.74" width="5.74" height="19.7" rx="2" transform="translate(105.92 206.13) rotate(-80.58)" style="fill:#8ababa"/><rect x="164.43" y="20.75" width="14.71" height="20.6" rx="2" style="fill:#8ababa"/><circle cx="171.29" cy="13.88" r="5.88" style="fill:#8ababa"/><rect x="173.25" y="39.39" width="4.9" height="18.63" rx="2" style="fill:#8ababa"/><path d="M176.18,12.44h0a1.65,1.65,0,0,1,2.09-1l8.18,2.76a1.66,1.66,0,0,1,1,2.09h0a1.65,1.65,0,0,1-2.1,1l-8.17-2.76A1.64,1.64,0,0,1,176.18,12.44Z" style="fill:#8ababa"/><path d="M175.6,24.28h0a1.9,1.9,0,0,1,.28-2.68l8.54-6.93a1.9,1.9,0,0,1,2.68.28h0a1.9,1.9,0,0,1-.28,2.68l-8.54,6.93A1.91,1.91,0,0,1,175.6,24.28Z" style="fill:#8ababa"/><path d="M167.76,12.44h0a1.65,1.65,0,0,0-2.09-1l-8.18,2.76a1.64,1.64,0,0,0-1,2.09h0a1.64,1.64,0,0,0,2.09,1l8.18-2.76A1.64,1.64,0,0,0,167.76,12.44Z" style="fill:#8ababa"/><path d="M167.09,23.26h0a1.9,1.9,0,0,0-.28-2.68l-7.37-6a1.91,1.91,0,0,0-2.68.28h0a1.9,1.9,0,0,0,.28,2.68l7.37,6A1.9,1.9,0,0,0,167.09,23.26Z" style="fill:#8ababa"/></g></svg>